<?xml version="1.0" encoding="utf-8"?>
<!-- Generator: Adobe Illustrator 22.0.1, SVG Export Plug-In . SVG Version: 6.00 Build 0)  -->
<svg version="1.1" xmlns="http://www.w3.org/2000/svg" xmlns:xlink="http://www.w3.org/1999/xlink" x="0px" y="0px"
	 viewBox="0 0 65 65" style="enable-background:new 0 0 65 65;" xml:space="preserve">
<style type="text/css">
	.st0{fill:none;}
	.st1{fill:#FFFFFF;}
</style>
<g id="Layer_2">
</g>
<g id="Layer_1">
	<g>
		<g>
			<g>
				<path class="st0" d="M48.6,43.4c0-6.4-3.8-11.9-9.2-14.5l8.7,18.6C48.4,46.2,48.6,44.8,48.6,43.4z"/>
			</g>
			<g>
				<path class="st0" d="M16.6,43.4c0,1.4,0.2,2.8,0.5,4.1l8.7-18.6C20.4,31.5,16.6,37,16.6,43.4z"/>
			</g>
			<g>
				<path class="st0" d="M35.3,25.4l-2.7-5.8l-2.7,5.8c0.9-0.1,1.8-0.2,2.7-0.2C33.6,25.2,34.5,25.3,35.3,25.4z"/>
			</g>
			<g>
				<path class="st1" d="M36.5,27.9l-1.2-2.5c-0.9-0.1-1.8-0.2-2.7-0.2c-0.9,0-1.8,0.1-2.7,0.2l-1.2,2.5c1.2-0.3,2.5-0.5,3.9-0.5
					C34,27.4,35.3,27.6,36.5,27.9z"/>
			</g>
			<g>
				<path class="st1" d="M48.6,43.4c0,1.4-0.2,2.8-0.5,4.1l1.3,2.9c0.9-2.2,1.4-4.6,1.4-7.1c0-8.1-5.4-15.1-12.8-17.4l1.4,2.9
					C44.9,31.5,48.6,37,48.6,43.4z"/>
			</g>
			<g>
				<path class="st1" d="M16.6,43.4c0-6.4,3.8-11.9,9.2-14.5l1.4-2.9c-7.4,2.3-12.8,9.2-12.8,17.4c0,2.5,0.5,4.9,1.4,7.1l1.3-2.9
					C16.8,46.2,16.6,44.8,16.6,43.4z"/>
			</g>
			<g>
				<path class="st1" d="M21.8,42.9l7-15c-1,0.3-2,0.6-2.9,1l-8.7,18.6c0,0.1,0,0.2,0.1,0.2C18.5,45.9,20,44.2,21.8,42.9z"/>
			</g>
			<g>
				<path class="st1" d="M48,47.8c0-0.1,0-0.2,0.1-0.2l-8.7-18.6c-0.9-0.4-1.9-0.8-2.9-1l7,15C45.3,44.2,46.8,45.9,48,47.8z"/>
			</g>
			<g>
				<path class="st1" d="M32.6,19.6l2.7,5.8c0.9,0.1,1.9,0.4,2.7,0.6l-4.4-9.6c-0.2-0.4-0.6-0.6-1-0.6s-0.8,0.3-1,0.6L27.2,26
					c0.9-0.3,1.8-0.5,2.7-0.6L32.6,19.6z"/>
			</g>
			<g>
				<path class="st1" d="M48,47.8c0.5,0.7,0.9,1.5,1.2,2.2c0.1,0.3,0.1,0.5,0,0.8c0.1-0.1,0.1-0.2,0.2-0.4l-1.3-2.9
					C48.1,47.6,48,47.7,48,47.8z"/>
			</g>
			<g>
				<path class="st1" d="M36.5,27.9c1,0.3,2,0.6,2.9,1L38.1,26c-0.9-0.3-1.8-0.5-2.7-0.6L36.5,27.9z"/>
			</g>
			<g>
				<path class="st1" d="M16,50c0.4-0.8,0.8-1.5,1.2-2.2c0-0.1,0-0.2-0.1-0.2l-1.3,2.9c0.1,0.1,0.1,0.2,0.2,0.4
					C15.9,50.6,15.9,50.3,16,50z"/>
			</g>
			<g>
				<path class="st1" d="M16.6,51.5c-0.2-0.1-0.4-0.2-0.5-0.4c0.3,0.6,0.6,1.3,1,1.9l0.9-2C17.8,51.5,17.1,51.7,16.6,51.5z"/>
			</g>
			<g>
				<path class="st1" d="M48.7,51.5c-0.1,0.1-0.3,0.1-0.5,0.1c-0.4,0-0.8-0.2-1-0.6l0.9,2c0.4-0.6,0.7-1.2,1-1.9
					C49,51.2,48.9,51.4,48.7,51.5z"/>
			</g>
			<g>
				<path class="st1" d="M28.8,27.9l1.2-2.5c-0.9,0.1-1.9,0.4-2.7,0.6l-1.4,2.9C26.8,28.5,27.8,28.1,28.8,27.9z"/>
			</g>
			<g>
				<path class="st1" d="M47,50.5c0.1,0.2,0.2,0.3,0.2,0.5c0,0,0,0,0,0L47,50.5C47,50.5,47,50.5,47,50.5z"/>
			</g>
			<g>
				<path class="st1" d="M18,51C18,51,18.1,51,18,51c0.1-0.2,0.2-0.3,0.3-0.5c0,0,0,0,0,0L18,51z"/>
			</g>
			<g>
				<path class="st1" d="M16.1,51.1c0-0.1-0.1-0.2-0.1-0.2C16,50.9,16.1,51,16.1,51.1z"/>
			</g>
			<g>
				<path class="st1" d="M49.3,50.8c0,0.1-0.1,0.2-0.1,0.2C49.2,51,49.2,50.9,49.3,50.8z"/>
			</g>
			<g>
				<path class="st1" d="M21.8,42.9c-1.8,1.3-3.3,3-4.5,4.9c0.3,0.9,0.6,1.8,1,2.7L21.8,42.9z"/>
			</g>
			<g>
				<path class="st1" d="M43.5,42.9l3.5,7.5c0.4-0.8,0.8-1.7,1-2.7C46.8,45.9,45.3,44.2,43.5,42.9z"/>
			</g>
			<g>
				<path class="st1" d="M49.2,50c-0.4-0.8-0.8-1.5-1.2-2.2c-0.3,0.9-0.6,1.8-1,2.7l0.2,0.5c0.2,0.4,0.6,0.6,1,0.6
					c0.2,0,0.3,0,0.5-0.1c0.2-0.1,0.4-0.2,0.5-0.4c0-0.1,0.1-0.2,0.1-0.2C49.4,50.6,49.3,50.3,49.2,50z"/>
			</g>
			<g>
				<path class="st1" d="M17.3,47.8c-0.5,0.7-0.9,1.5-1.2,2.2c-0.1,0.3-0.1,0.5,0,0.8c0,0.1,0.1,0.2,0.1,0.2
					c0.1,0.2,0.3,0.3,0.5,0.4c0.5,0.2,1.2,0,1.4-0.5l0.2-0.5C17.9,49.6,17.5,48.7,17.3,47.8z"/>
			</g>
		</g>
		<g>
			<g>
				<g>
					<path class="st1" d="M51.2,33.4c-0.4,0-0.7-0.2-0.9-0.5c-0.3-0.5-0.2-1.2,0.3-1.5l4.2-2.7c0.5-0.3,1.2-0.2,1.5,0.3
						c0.3,0.5,0.2,1.2-0.3,1.5l-4.2,2.7C51.6,33.3,51.4,33.4,51.2,33.4z"/>
				</g>
				<g>
					<path class="st1" d="M47.5,28.2c-0.3,0-0.5-0.1-0.7-0.3c-0.5-0.4-0.5-1.1-0.1-1.6l3.2-3.8c0.4-0.5,1.1-0.5,1.6-0.1
						c0.5,0.4,0.5,1.1,0.1,1.6l-3.2,3.8C48.1,28.1,47.8,28.2,47.5,28.2z"/>
				</g>
				<g>
					<path class="st1" d="M41.9,25.1c-0.1,0-0.2,0-0.3-0.1c-0.6-0.2-0.9-0.8-0.7-1.4l1.4-4.4c0.2-0.6,0.8-0.9,1.4-0.7
						c0.6,0.2,0.9,0.8,0.7,1.4L43,24.3C42.8,24.8,42.4,25.1,41.9,25.1z"/>
				</g>
				<g>
					<path class="st1" d="M54,39c-0.5,0-0.9-0.3-1.1-0.8c-0.2-0.6,0.2-1.2,0.8-1.4l4.7-1.3c0.6-0.2,1.2,0.2,1.4,0.8
						c0.2,0.6-0.2,1.2-0.8,1.4l-4.7,1.3C54.2,38.9,54.1,39,54,39z"/>
				</g>
				<g>
					<path class="st1" d="M57.9,52.8c-0.1,0-0.3,0-0.4-0.1l-4.1-1.8c-0.6-0.2-0.8-0.9-0.6-1.5c0.2-0.6,0.9-0.8,1.5-0.6l4.1,1.8
						c0.6,0.2,0.8,0.9,0.6,1.5C58.8,52.5,58.3,52.8,57.9,52.8z"/>
				</g>
				<g>
					<path class="st1" d="M58.9,45.4c0,0-0.1,0-0.1,0l-4.4-0.5c-0.6-0.1-1-0.6-1-1.2c0.1-0.6,0.6-1,1.2-1l4.4,0.5
						c0.6,0.1,1,0.6,1,1.2C59.9,45,59.4,45.4,58.9,45.4z"/>
				</g>
			</g>
			<g>
				<g>
					<path class="st1" d="M14.1,33.4c-0.2,0-0.4-0.1-0.6-0.2l-4.2-2.7c-0.5-0.3-0.7-1-0.3-1.5c0.3-0.5,1-0.7,1.5-0.3l4.2,2.7
						c0.5,0.3,0.7,1,0.3,1.5C14.8,33.2,14.5,33.4,14.1,33.4z"/>
				</g>
				<g>
					<path class="st1" d="M17.8,28.2c-0.3,0-0.6-0.1-0.8-0.4l-3.2-3.8c-0.4-0.5-0.3-1.2,0.1-1.6c0.5-0.4,1.2-0.3,1.6,0.1l3.2,3.8
						c0.4,0.5,0.3,1.2-0.1,1.6C18.3,28.1,18.1,28.2,17.8,28.2z"/>
				</g>
				<g>
					<path class="st1" d="M23.4,25.1c-0.5,0-0.9-0.3-1.1-0.8l-1.4-4.4c-0.2-0.6,0.1-1.2,0.7-1.4c0.6-0.2,1.2,0.1,1.4,0.7l1.4,4.4
						c0.2,0.6-0.1,1.2-0.7,1.4C23.6,25.1,23.5,25.1,23.4,25.1z"/>
				</g>
				<g>
					<path class="st1" d="M11.3,39c-0.1,0-0.2,0-0.3,0l-4.7-1.3c-0.6-0.2-0.9-0.8-0.8-1.4c0.2-0.6,0.8-0.9,1.4-0.8l4.7,1.3
						c0.6,0.2,0.9,0.8,0.8,1.4C12.3,38.6,11.8,39,11.3,39z"/>
				</g>
				<g>
					<path class="st1" d="M7.4,52.8c-0.4,0-0.8-0.3-1-0.7c-0.2-0.6,0-1.2,0.6-1.5l4.1-1.8c0.6-0.2,1.2,0,1.5,0.6
						c0.2,0.6,0,1.2-0.6,1.5l-4.1,1.8C7.7,52.8,7.5,52.8,7.4,52.8z"/>
				</g>
				<g>
					<path class="st1" d="M6.4,45.4c-0.6,0-1-0.4-1.1-1c-0.1-0.6,0.4-1.2,1-1.2l4.4-0.5c0.6-0.1,1.2,0.4,1.2,1
						c0.1,0.6-0.4,1.2-1,1.2l-4.4,0.5C6.5,45.4,6.4,45.4,6.4,45.4z"/>
				</g>
			</g>
		</g>
	</g>
</g>
</svg>
