<?xml version="1.0" encoding="utf-8"?>
<!-- Generator: Adobe Illustrator 22.0.1, SVG Export Plug-In . SVG Version: 6.00 Build 0)  -->
<svg version="1.1" xmlns="http://www.w3.org/2000/svg" xmlns:xlink="http://www.w3.org/1999/xlink" x="0px" y="0px"
	 viewBox="0 0 65 65" style="enable-background:new 0 0 65 65;" xml:space="preserve">
<style type="text/css">
	.st0{display:none;}
	.st1{display:inline;fill:#FF0049;}
	.st2{display:inline;}
	.st3{fill:none;}
	.st4{fill:#FFFFFF;}
</style>
<g id="Layer_2" class="st0">
	<rect x="-13" y="-7" class="st1" width="92" height="81"/>
</g>
<g id="Layer_1" class="st0">
	<g class="st2">
		<g>
			<g>
				<path class="st3" d="M48.6,43.4c0-6.4-3.8-11.9-9.2-14.5l8.7,18.6C48.4,46.2,48.6,44.8,48.6,43.4z"/>
			</g>
			<g>
				<path class="st3" d="M16.6,43.4c0,1.4,0.2,2.8,0.5,4.1l8.7-18.6C20.4,31.5,16.6,37,16.6,43.4z"/>
			</g>
			<g>
				<path class="st3" d="M35.3,25.4l-2.7-5.8l-2.7,5.8c0.9-0.1,1.8-0.2,2.7-0.2C33.6,25.2,34.5,25.3,35.3,25.4z"/>
			</g>
			<g>
				<path class="st4" d="M36.5,27.9l-1.2-2.5c-0.9-0.1-1.8-0.2-2.7-0.2c-0.9,0-1.8,0.1-2.7,0.2l-1.2,2.5c1.2-0.3,2.5-0.5,3.9-0.5
					C34,27.4,35.3,27.6,36.5,27.9z"/>
			</g>
			<g>
				<path class="st4" d="M48.6,43.4c0,1.4-0.2,2.8-0.5,4.1l1.3,2.9c0.9-2.2,1.4-4.6,1.4-7.1c0-8.1-5.4-15.1-12.8-17.4l1.4,2.9
					C44.9,31.5,48.6,37,48.6,43.4z"/>
			</g>
			<g>
				<path class="st4" d="M16.6,43.4c0-6.4,3.8-11.9,9.2-14.5l1.4-2.9c-7.4,2.3-12.8,9.2-12.8,17.4c0,2.5,0.5,4.9,1.4,7.1l1.3-2.9
					C16.8,46.2,16.6,44.8,16.6,43.4z"/>
			</g>
			<g>
				<path class="st4" d="M21.8,42.9l7-15c-1,0.3-2,0.6-2.9,1l-8.7,18.6c0,0.1,0,0.2,0.1,0.2C18.5,45.9,20,44.2,21.8,42.9z"/>
			</g>
			<g>
				<path class="st4" d="M48,47.8c0-0.1,0-0.2,0.1-0.2l-8.7-18.6c-0.9-0.4-1.9-0.8-2.9-1l7,15C45.3,44.2,46.8,45.9,48,47.8z"/>
			</g>
			<g>
				<path class="st4" d="M32.6,19.6l2.7,5.8c0.9,0.1,1.9,0.4,2.7,0.6l-4.4-9.6c-0.2-0.4-0.6-0.6-1-0.6s-0.8,0.3-1,0.6L27.2,26
					c0.9-0.3,1.8-0.5,2.7-0.6L32.6,19.6z"/>
			</g>
			<g>
				<path class="st4" d="M48,47.8c0.5,0.7,0.9,1.5,1.2,2.2c0.1,0.3,0.1,0.5,0,0.8c0.1-0.1,0.1-0.2,0.2-0.4l-1.3-2.9
					C48.1,47.6,48,47.7,48,47.8z"/>
			</g>
			<g>
				<path class="st4" d="M36.5,27.9c1,0.3,2,0.6,2.9,1L38.1,26c-0.9-0.3-1.8-0.5-2.7-0.6L36.5,27.9z"/>
			</g>
			<g>
				<path class="st4" d="M16,50c0.4-0.8,0.8-1.5,1.2-2.2c0-0.1,0-0.2-0.1-0.2l-1.3,2.9c0.1,0.1,0.1,0.2,0.2,0.4
					C15.9,50.6,15.9,50.3,16,50z"/>
			</g>
			<g>
				<path class="st4" d="M16.6,51.5c-0.2-0.1-0.4-0.2-0.5-0.4c0.3,0.6,0.6,1.3,1,1.9l0.9-2C17.8,51.5,17.1,51.7,16.6,51.5z"/>
			</g>
			<g>
				<path class="st4" d="M48.7,51.5c-0.1,0.1-0.3,0.1-0.5,0.1c-0.4,0-0.8-0.2-1-0.6l0.9,2c0.4-0.6,0.7-1.2,1-1.9
					C49,51.2,48.9,51.4,48.7,51.5z"/>
			</g>
			<g>
				<path class="st4" d="M28.8,27.9l1.2-2.5c-0.9,0.1-1.9,0.4-2.7,0.6l-1.4,2.9C26.8,28.5,27.8,28.1,28.8,27.9z"/>
			</g>
			<g>
				<path class="st4" d="M47,50.5c0.1,0.2,0.2,0.3,0.2,0.5c0,0,0,0,0,0L47,50.5C47,50.5,47,50.5,47,50.5z"/>
			</g>
			<g>
				<path class="st4" d="M18,51C18,51,18.1,51,18,51c0.1-0.2,0.2-0.3,0.3-0.5c0,0,0,0,0,0L18,51z"/>
			</g>
			<g>
				<path class="st4" d="M16.1,51.1c0-0.1-0.1-0.2-0.1-0.2C16,50.9,16.1,51,16.1,51.1z"/>
			</g>
			<g>
				<path class="st4" d="M49.3,50.8c0,0.1-0.1,0.2-0.1,0.2C49.2,51,49.2,50.9,49.3,50.8z"/>
			</g>
			<g>
				<path class="st4" d="M21.8,42.9c-1.8,1.3-3.3,3-4.5,4.9c0.3,0.9,0.6,1.8,1,2.7L21.8,42.9z"/>
			</g>
			<g>
				<path class="st4" d="M43.5,42.9l3.5,7.5c0.4-0.8,0.8-1.7,1-2.7C46.8,45.9,45.3,44.2,43.5,42.9z"/>
			</g>
			<g>
				<path class="st4" d="M49.2,50c-0.4-0.8-0.8-1.5-1.2-2.2c-0.3,0.9-0.6,1.8-1,2.7l0.2,0.5c0.2,0.4,0.6,0.6,1,0.6
					c0.2,0,0.3,0,0.5-0.1c0.2-0.1,0.4-0.2,0.5-0.4c0-0.1,0.1-0.2,0.1-0.2C49.4,50.6,49.3,50.3,49.2,50z"/>
			</g>
			<g>
				<path class="st4" d="M17.3,47.8c-0.5,0.7-0.9,1.5-1.2,2.2c-0.1,0.3-0.1,0.5,0,0.8c0,0.1,0.1,0.2,0.1,0.2
					c0.1,0.2,0.3,0.3,0.5,0.4c0.5,0.2,1.2,0,1.4-0.5l0.2-0.5C17.9,49.6,17.5,48.7,17.3,47.8z"/>
			</g>
		</g>
		<g>
			<g>
				<g>
					<path class="st4" d="M51.2,33.4c-0.4,0-0.7-0.2-0.9-0.5c-0.3-0.5-0.2-1.2,0.3-1.5l4.2-2.7c0.5-0.3,1.2-0.2,1.5,0.3
						c0.3,0.5,0.2,1.2-0.3,1.5l-4.2,2.7C51.6,33.3,51.4,33.4,51.2,33.4z"/>
				</g>
				<g>
					<path class="st4" d="M47.5,28.2c-0.3,0-0.5-0.1-0.7-0.3c-0.5-0.4-0.5-1.1-0.1-1.6l3.2-3.8c0.4-0.5,1.1-0.5,1.6-0.1
						c0.5,0.4,0.5,1.1,0.1,1.6l-3.2,3.8C48.1,28.1,47.8,28.2,47.5,28.2z"/>
				</g>
				<g>
					<path class="st4" d="M41.9,25.1c-0.1,0-0.2,0-0.3-0.1c-0.6-0.2-0.9-0.8-0.7-1.4l1.4-4.4c0.2-0.6,0.8-0.9,1.4-0.7
						c0.6,0.2,0.9,0.8,0.7,1.4L43,24.3C42.8,24.8,42.4,25.1,41.9,25.1z"/>
				</g>
				<g>
					<path class="st4" d="M54,39c-0.5,0-0.9-0.3-1.1-0.8c-0.2-0.6,0.2-1.2,0.8-1.4l4.7-1.3c0.6-0.2,1.2,0.2,1.4,0.8
						c0.2,0.6-0.2,1.2-0.8,1.4l-4.7,1.3C54.2,38.9,54.1,39,54,39z"/>
				</g>
				<g>
					<path class="st4" d="M57.9,52.8c-0.1,0-0.3,0-0.4-0.1l-4.1-1.8c-0.6-0.2-0.8-0.9-0.6-1.5c0.2-0.6,0.9-0.8,1.5-0.6l4.1,1.8
						c0.6,0.2,0.8,0.9,0.6,1.5C58.8,52.5,58.3,52.8,57.9,52.8z"/>
				</g>
				<g>
					<path class="st4" d="M58.9,45.4c0,0-0.1,0-0.1,0l-4.4-0.5c-0.6-0.1-1-0.6-1-1.2c0.1-0.6,0.6-1,1.2-1l4.4,0.5
						c0.6,0.1,1,0.6,1,1.2C59.9,45,59.4,45.4,58.9,45.4z"/>
				</g>
			</g>
			<g>
				<g>
					<path class="st4" d="M14.1,33.4c-0.2,0-0.4-0.1-0.6-0.2l-4.2-2.7c-0.5-0.3-0.7-1-0.3-1.5c0.3-0.5,1-0.7,1.5-0.3l4.2,2.7
						c0.5,0.3,0.7,1,0.3,1.5C14.8,33.2,14.5,33.4,14.1,33.4z"/>
				</g>
				<g>
					<path class="st4" d="M17.8,28.2c-0.3,0-0.6-0.1-0.8-0.4l-3.2-3.8c-0.4-0.5-0.3-1.2,0.1-1.6c0.5-0.4,1.2-0.3,1.6,0.1l3.2,3.8
						c0.4,0.5,0.3,1.2-0.1,1.6C18.3,28.1,18.1,28.2,17.8,28.2z"/>
				</g>
				<g>
					<path class="st4" d="M23.4,25.1c-0.5,0-0.9-0.3-1.1-0.8l-1.4-4.4c-0.2-0.6,0.1-1.2,0.7-1.4c0.6-0.2,1.2,0.1,1.4,0.7l1.4,4.4
						c0.2,0.6-0.1,1.2-0.7,1.4C23.6,25.1,23.5,25.1,23.4,25.1z"/>
				</g>
				<g>
					<path class="st4" d="M11.3,39c-0.1,0-0.2,0-0.3,0l-4.7-1.3c-0.6-0.2-0.9-0.8-0.8-1.4c0.2-0.6,0.8-0.9,1.4-0.8l4.7,1.3
						c0.6,0.2,0.9,0.8,0.8,1.4C12.3,38.6,11.8,39,11.3,39z"/>
				</g>
				<g>
					<path class="st4" d="M7.4,52.8c-0.4,0-0.8-0.3-1-0.7c-0.2-0.6,0-1.2,0.6-1.5l4.1-1.8c0.6-0.2,1.2,0,1.5,0.6
						c0.2,0.6,0,1.2-0.6,1.5l-4.1,1.8C7.7,52.8,7.5,52.8,7.4,52.8z"/>
				</g>
				<g>
					<path class="st4" d="M6.4,45.4c-0.6,0-1-0.4-1.1-1c-0.1-0.6,0.4-1.2,1-1.2l4.4-0.5c0.6-0.1,1.2,0.4,1.2,1
						c0.1,0.6-0.4,1.2-1,1.2l-4.4,0.5C6.5,45.4,6.4,45.4,6.4,45.4z"/>
				</g>
			</g>
		</g>
	</g>
</g>
<g id="Layer_3" class="st0">
	<g class="st2">
		<g>
			<path class="st4" d="M16.4,42.7c-0.5,0-0.9-0.2-1.1-0.6c-4.5-8.1-3.1-18.3,3.4-24.8h0c0,0,0,0,0,0c2.1-2.1,4.6-3.7,7.4-4.8
				c0.5-0.2,1-0.1,1.3,0.3c0.4,0.3,0.5,0.9,0.3,1.3L17.6,41.8c-0.2,0.5-0.6,0.8-1.1,0.8C16.5,42.7,16.5,42.7,16.4,42.7z M24.4,16.1
				c-1.4,0.8-2.6,1.8-3.8,2.9c0,0,0,0,0,0c-5,5-6.6,12.5-4.3,19.1L24.4,16.1z M19.7,18.1L19.7,18.1L19.7,18.1z"/>
		</g>
		<g>
			<path class="st4" d="M33.4,52.6c-3.5,0-7-0.9-10.1-2.6c-0.4-0.2-0.7-0.7-0.6-1.2c0-0.5,0.4-0.9,0.8-1.1l27.8-10.2
				c0.5-0.2,1-0.1,1.3,0.3c0.3,0.4,0.5,0.9,0.3,1.3c-1,2.8-2.6,5.3-4.8,7.4c0,0,0,0,0,0C44.2,50.5,38.8,52.6,33.4,52.6z M27.3,49
				c6.6,2.4,14.1,0.8,19.1-4.3c1.1-1.1,2.1-2.4,2.9-3.8L27.3,49z M47.3,45.7L47.3,45.7L47.3,45.7z"/>
		</g>
		<g>
			<path class="st4" d="M23.9,50.2c-0.2,0-0.4-0.1-0.6-0.2c-1.7-0.9-3.2-2.1-4.5-3.4c-1.3-1.3-2.5-2.9-3.4-4.5
				c-0.2-0.3-0.2-0.7-0.1-1.1l10.2-27.8c0.1-0.3,0.3-0.5,0.6-0.7c0.1-0.1,0.2-0.1,0.3-0.1c0.5-0.1,1,0,1.3,0.4
				c0.3,0.4,0.4,0.9,0.3,1.3c-2.5,6.7-0.9,14.3,4.2,19.3c5,5,12.6,6.7,19.3,4.2c0.5-0.2,1-0.1,1.3,0.3c0.4,0.4,0.5,0.9,0.3,1.3
				c-0.1,0.3-0.4,0.6-0.8,0.8L24.4,50.1C24.2,50.1,24.1,50.2,23.9,50.2z M17.8,41.3c0.8,1.3,1.7,2.5,2.7,3.5c1,1,2.2,2,3.5,2.7
				L41.8,41c-4.3-0.6-8.4-2.6-11.6-5.9c-3.2-3.2-5.2-7.3-5.9-11.6L17.8,41.3z"/>
		</g>
		<g>
			<path class="st4" d="M44.9,41.2c-5.4,0-10.8-2.1-14.7-6.1c-5.7-5.7-7.6-14.4-4.8-22c0.2-0.7,1-1,1.6-0.7c0.7,0.2,1,1,0.7,1.6
				c-2.5,6.7-0.9,14.3,4.2,19.3c5,5,12.6,6.7,19.3,4.2c0.7-0.2,1.4,0.1,1.6,0.7s-0.1,1.4-0.7,1.6C49.8,40.8,47.3,41.2,44.9,41.2z"/>
		</g>
	</g>
</g>
<g id="Layer_4" class="st0">
	<g class="st2">
		<g>
			<path class="st4" d="M56.7,19.3H36.9c-0.7,0-1.3-0.6-1.3-1.3s0.6-1.3,1.3-1.3h19.8c0.7,0,1.3,0.6,1.3,1.3S57.4,19.3,56.7,19.3z"
				/>
		</g>
		<g>
			<g>
				<path class="st4" d="M16.1,42.8c-0.5,0-0.9-0.3-1.1-0.7c-4.7-8.3-3.2-18.8,3.5-25.6h0c0,0,0,0,0,0c2.2-2.2,4.7-3.8,7.6-4.9
					c0.5-0.2,1-0.1,1.4,0.3c0.4,0.4,0.5,0.9,0.3,1.4L17.3,41.9c-0.2,0.5-0.6,0.8-1.1,0.9C16.2,42.8,16.2,42.8,16.1,42.8z M24.3,15.4
					c-1.4,0.8-2.7,1.8-3.9,3c0,0,0,0,0,0C15.2,23.6,13.6,31.3,16,38L24.3,15.4z M19.4,17.5L19.4,17.5L19.4,17.5z"/>
			</g>
			<g>
				<path class="st4" d="M33.6,53c-3.6,0-7.2-0.9-10.4-2.7c-0.4-0.2-0.7-0.7-0.7-1.2c0-0.5,0.4-0.9,0.9-1.1L52,37.5
					c0.5-0.2,1-0.1,1.4,0.3c0.4,0.4,0.5,0.9,0.3,1.4c-1.1,2.9-2.7,5.4-4.9,7.6c0,0,0,0,0,0C44.7,50.9,39.2,53,33.6,53z M27.3,49.3
					c6.7,2.4,14.5,0.8,19.7-4.4c1.2-1.2,2.2-2.5,3-3.9L27.3,49.3z M47.8,45.9L47.8,45.9L47.8,45.9z"/>
			</g>
			<g>
				<path class="st4" d="M23.8,50.5c-0.2,0-0.4-0.1-0.6-0.2c-1.7-1-3.3-2.2-4.7-3.5c-1.4-1.4-2.6-3-3.5-4.7
					c-0.2-0.3-0.2-0.7-0.1-1.1l10.5-28.6c0.1-0.3,0.3-0.5,0.6-0.7c0.1-0.1,0.2-0.1,0.3-0.1c0.5-0.1,1,0,1.3,0.4
					c0.3,0.4,0.4,0.9,0.3,1.3c-2.6,6.9-0.9,14.7,4.3,19.9c5.2,5.2,13,6.9,19.9,4.3c0.5-0.2,1-0.1,1.4,0.3c0.4,0.4,0.5,0.9,0.3,1.4
					c-0.1,0.4-0.4,0.6-0.8,0.8L24.3,50.4C24.1,50.5,24,50.5,23.8,50.5z M17.6,41.3c0.8,1.3,1.7,2.5,2.8,3.6c1.1,1.1,2.3,2,3.6,2.8
					l18.3-6.7c-4.5-0.7-8.7-2.7-12-6c-3.3-3.3-5.4-7.5-6-12L17.6,41.3z"/>
			</g>
			<g>
				<path class="st4" d="M45.4,41.3c-5.6,0-11.1-2.2-15.1-6.3c-5.9-5.9-7.8-14.8-4.9-22.6c0.3-0.7,1-1,1.7-0.8c0.7,0.3,1,1,0.8,1.7
					c-2.6,6.9-0.9,14.7,4.3,19.9c5.2,5.2,13,6.9,19.9,4.3c0.7-0.3,1.4,0.1,1.7,0.8c0.3,0.7-0.1,1.4-0.8,1.7
					C50.5,40.9,47.9,41.3,45.4,41.3z"/>
			</g>
		</g>
		<g>
			<path class="st4" d="M45.5,27.8V8.1c0-0.7,0.6-1.3,1.3-1.3s1.3,0.6,1.3,1.3v19.8c0,0.7-0.6,1.3-1.3,1.3S45.5,28.6,45.5,27.8z"/>
		</g>
	</g>
</g>
<g id="Layer_5">
	<g>
		<g>
			<g>
				<path class="st4" d="M44.2,32.1c-0.1,0-0.3,0-0.4-0.1c-0.6-0.2-1-0.9-0.7-1.6l3.3-9.1l-9.1,3.3c-0.6,0.2-1.4-0.1-1.6-0.7
					c-0.2-0.6,0.1-1.4,0.7-1.6L48,18.1c0.5-0.2,1-0.1,1.3,0.3c0.3,0.3,0.5,0.9,0.3,1.3l-4.2,11.6C45.2,31.8,44.7,32.1,44.2,32.1z"/>
			</g>
			<g>
				<path class="st4" d="M34.2,59.3c-0.3,0-0.6-0.1-0.9-0.4c-0.3-0.3-0.5-0.9-0.3-1.3l10-27.2c0.2-0.5,0.6-0.8,1.1-0.8
					c0.5,0,0.9,0.2,1.2,0.6c4.4,7.9,3,17.9-3.4,24.3l0,0l0,0c-2.1,2.1-4.5,3.6-7.2,4.7C34.5,59.3,34.4,59.3,34.2,59.3z M44.3,34.1
					l-7.9,21.6c1.4-0.8,2.6-1.7,3.7-2.8l0,0C45.1,47.9,46.6,40.5,44.3,34.1z"/>
			</g>
			<g>
				<path class="st4" d="M9.6,34.7c-0.3,0-0.6-0.1-0.9-0.4C8.4,34,8.3,33.5,8.5,33c1-2.7,2.6-5.2,4.7-7.2c0,0,0,0,0,0
					c6.4-6.4,16.4-7.8,24.3-3.4c0.4,0.2,0.7,0.7,0.6,1.2c0,0.5-0.4,0.9-0.8,1.1L10,34.6C9.9,34.7,9.8,34.7,9.6,34.7z M14.9,27.5
					c-1.1,1.1-2.1,2.4-2.8,3.7l21.6-7.9C27.2,21,19.8,22.6,14.9,27.5L14.9,27.5z"/>
			</g>
			<g>
				<path class="st4" d="M34.2,59.3c-0.3,0-0.7-0.1-0.9-0.4c-0.3-0.3-0.4-0.8-0.2-1.3c2.5-6.6,0.9-14-4.1-18.9
					c-4.9-4.9-12.4-6.5-18.9-4.1c-0.4,0.2-0.9,0.1-1.3-0.2c-0.3-0.3-0.5-0.8-0.4-1.2c0-0.1,0-0.1,0.1-0.2c0.1-0.3,0.4-0.6,0.7-0.7
					l27.2-10c0.6-0.2,1.4,0.1,1.6,0.7c0.2,0.6-0.1,1.4-0.7,1.6l-17.9,6.6c4.2,0.6,8.3,2.6,11.4,5.7c3.1,3.1,5.1,7.2,5.7,11.4
					L43,30.4c0.2-0.6,0.9-1,1.6-0.7c0.6,0.2,1,0.9,0.7,1.6l-10,27.2c-0.1,0.2-0.3,0.5-0.5,0.6c-0.1,0.1-0.2,0.1-0.4,0.2
					C34.5,59.3,34.3,59.3,34.2,59.3z"/>
			</g>
			<g>
				<path class="st4" d="M34.2,59.3c-0.1,0-0.3,0-0.4-0.1c-0.6-0.2-1-1-0.7-1.6c2.5-6.6,0.9-14-4.1-18.9c-4.9-4.9-12.4-6.5-18.9-4.1
					c-0.6,0.2-1.4-0.1-1.6-0.7c-0.2-0.6,0.1-1.4,0.7-1.6c7.5-2.8,15.9-1,21.6,4.7c5.6,5.6,7.5,14.1,4.7,21.6
					C35.2,59,34.7,59.3,34.2,59.3z"/>
			</g>
		</g>
		<g>
			<g>
				<path class="st4" d="M14.3,45.4c-0.3,0-0.6-0.1-0.9-0.4c-0.5-0.5-0.5-1.3,0-1.8l5-5c0.5-0.5,1.3-0.5,1.8,0s0.5,1.3,0,1.8l-5,5
					C15,45.3,14.6,45.4,14.3,45.4z"/>
			</g>
			<g>
				<path class="st4" d="M23.5,54.6c-0.3,0-0.6-0.1-0.9-0.4c-0.5-0.5-0.5-1.3,0-1.8l5-5c0.5-0.5,1.3-0.5,1.8,0
					c0.5,0.5,0.5,1.3,0,1.8l-5,5C24.2,54.5,23.9,54.6,23.5,54.6z"/>
			</g>
			<g>
				<path class="st4" d="M14.2,54.7c-0.3,0-0.6-0.1-0.9-0.4c-0.5-0.5-0.5-1.3,0-1.8L24,41.9c0.5-0.5,1.3-0.5,1.8,0
					c0.5,0.5,0.5,1.3,0,1.8L15.1,54.3C14.9,54.5,14.6,54.7,14.2,54.7z"/>
			</g>
		</g>
	</g>
</g>
</svg>
